<svg width="1200" height="300" viewBox="0 0 1200 300" xmlns="http://www.w3.org/2000/svg">
	<defs>
		<linearGradient id="waveBack" x1="0%" y1="0%" x2="100%" y2="0%">
			<stop offset="0%" stop-color="#1c1b1a" />
			<stop offset="100%" stop-color="#9c4530" />
		</linearGradient>
		<linearGradient id="waveFront" x1="0%" y1="0%" x2="100%" y2="0%">
			<stop offset="0%" stop-color="#9c4530" />
			<stop offset="100%" stop-color="#c1533d" />
		</linearGradient>
	</defs>

	<rect width="1200" height="300" fill="#141414" />

	<path
		d="M0,215 C260,175 440,245 700,205 C900,178 1040,222 1200,192 L1200,300 L0,300 Z"
		fill="url(#waveBack)"
		opacity="0.55"
	/>
	<path
		d="M0,245 C280,210 460,268 720,238 C920,214 1050,250 1200,226 L1200,300 L0,300 Z"
		fill="url(#waveFront)"
	/>

	<g fill="#d98b76">
		<circle cx="64" cy="78" r="4" />
		<circle cx="80" cy="78" r="4" />
		<circle cx="64" cy="94" r="4" />
		<circle cx="80" cy="94" r="4" />
	</g>

	<text
		x="106"
		y="112"
		font-family="Georgia, 'Times New Roman', serif"
		font-size="58"
		font-weight="700"
		fill="#f5f2ed"
	>Luis Barrantes<tspan fill="#c1533d">.</tspan></text>

	<text
		x="108"
		y="152"
		font-family="Verdana, Helvetica, Arial, sans-serif"
		font-size="22"
		letter-spacing="0.5"
		fill="#d98b76"
	>Full-Stack Software Engineer · Costa Rica</text>
</svg>
